<?xml version="1.0" encoding="UTF-8" standalone="no"?>
<!-- Created with Inkscape (http://www.inkscape.org/) -->

<svg
   xmlns:dc="http://purl.org/dc/elements/1.1/"
   xmlns:cc="http://creativecommons.org/ns#"
   xmlns:rdf="http://www.w3.org/1999/02/22-rdf-syntax-ns#"
   xmlns:svg="http://www.w3.org/2000/svg"
   xmlns="http://www.w3.org/2000/svg"
   xmlns:sodipodi="http://sodipodi.sourceforge.net/DTD/sodipodi-0.dtd"
   xmlns:inkscape="http://www.inkscape.org/namespaces/inkscape"
   width="200"
   height="200"
   viewBox="0 0 200 200"
   id="svg2"
   version="1.1"
   inkscape:version="0.91 r13725"
   sodipodi:docname="insta.svg">
  <defs
     id="defs4" />
  <sodipodi:namedview
     id="base"
     pagecolor="#ffffff"
     bordercolor="#666666"
     borderopacity="1.0"
     inkscape:pageopacity="0.0"
     inkscape:pageshadow="2"
     inkscape:zoom="2.8"
     inkscape:cx="-128.22252"
     inkscape:cy="144.32586"
     inkscape:document-units="px"
     inkscape:current-layer="layer1"
     showgrid="false"
     inkscape:window-width="1858"
     inkscape:window-height="1058"
     inkscape:window-x="-8"
     inkscape:window-y="-8"
     inkscape:window-maximized="1"
     units="px" />
  <metadata
     id="metadata7">
    <rdf:RDF>
      <cc:Work
         rdf:about="">
        <dc:format>image/svg+xml</dc:format>
        <dc:type
           rdf:resource="http://purl.org/dc/dcmitype/StillImage" />
        <dc:title />
      </cc:Work>
    </rdf:RDF>
  </metadata>
  <g
     inkscape:label="Layer 1"
     inkscape:groupmode="layer"
     id="layer1"
     transform="translate(0,-852.36216)">
    <path
       inkscape:connector-curvature="0"
       id="path4166"
       d="M 17.232823,1051.5722 C 9.19934,1049.4682 2.846523,1043.0627 0.780132,1034.983 0.012907,1031.9835 0,1030.6163 0,952.37039 c 0,-78.24595 0.01283,-79.613 0.780132,-82.61282 2.086255,-8.15718 8.449861,-14.5208 16.607041,-16.60703 2.99982,-0.76724 4.366875,-0.78015 82.612827,-0.78015 78.24597,0 79.613,0.0117 82.61282,0.78015 8.15718,2.08623 14.5208,8.44985 16.60705,16.60703 0.76721,2.99982 0.78013,4.36687 0.78013,82.61282 0,78.24591 -0.0117,79.61311 -0.78013,82.61261 -2.08625,8.1575 -8.44987,14.5212 -16.60705,16.6074 -3.0013,0.7676 -4.33039,0.7796 -82.77297,0.7586 -77.521,-0.022 -79.802317,-0.042 -82.607023,-0.7768 z M 172.4998,1028.3883 c 2.20517,-1.0268 3.35522,-2.3746 4.0351,-4.7288 0.33207,-1.15 0.42108,-12.7556 0.33707,-43.94536 l -0.11417,-42.38282 -8.49608,-0.10517 c -5.20489,-0.0647 -8.4961,0.0392 -8.4961,0.26745 0,0.205 0.26318,1.62377 0.58481,3.1529 1.99859,9.50087 1.2243,21.53942 -2.0064,31.1956 -3.08746,9.2281 -7.7764,16.71904 -14.9649,23.90754 -12.00563,12.00546 -26.44938,17.99846 -43.37915,17.99846 -16.92452,0 -31.39336,-6.0004 -43.385323,-17.99226 -10.879682,-10.8797 -16.821777,-23.8284 -17.923782,-39.05857 -0.339438,-4.6912 0.09333,-11.93723 0.958658,-16.05077 0.321659,-1.52913 0.58483,-2.9479 0.58483,-3.1529 0,-0.22835 -3.291218,-0.33193 -8.496098,-0.26745 l -8.496092,0.10517 -0.114166,42.38282 c -0.08402,31.18976 0.005,42.79536 0.337066,43.94536 0.679892,2.3542 1.829937,3.702 4.0351,4.7288 l 1.991992,0.9276 70.507825,0 70.50781,0 1.992,-0.9276 z m -62.53887,-38.86488 c 7.29699,-1.94193 15.14354,-7.08122 19.92029,-13.04722 2.99666,-3.74268 6.07806,-9.71011 7.30406,-14.14488 0.73949,-2.67498 0.8639,-4.10942 0.8639,-9.96093 0,-8.10252 -0.57148,-10.7529 -3.66386,-16.9922 -3.76522,-7.59687 -9.79629,-13.62789 -17.39314,-17.3931 -6.23928,-3.09239 -8.88966,-3.66387 -16.99218,-3.66387 -8.10253,0 -10.7529,0.57148 -16.99219,3.66387 -7.59685,3.76521 -13.6279,9.79623 -17.39312,17.3931 -3.10463,6.264 -3.6708,8.89353 -3.65867,16.9922 0.0122,8.11451 0.59094,10.80263 3.65867,16.9922 5.20994,10.51175 14.82616,18.0599 26.18218,20.55133 4.58725,1.00645 13.64685,0.81167 18.16406,-0.3905 z m 62.10939,-76.15678 c 1.67378,-0.71284 3.3043,-2.35045 4.14225,-4.16032 0.65643,-1.41785 0.7242,-2.73348 0.73196,-14.21248 0.01,-14.07405 -0.118,-15.01572 -2.33516,-17.23282 -2.2171,-2.21713 -3.15875,-2.34473 -17.2328,-2.33518 -11.3907,0.008 -12.80589,0.0793 -14.21585,0.71995 -2.02752,0.92105 -3.97704,3.16175 -4.37192,5.02485 -0.1718,0.81025 -0.31223,7.18608 -0.31223,14.1685 0,11.65486 0.0598,12.80736 0.7307,14.0625 1.36545,2.55485 2.93551,3.7462 5.7146,4.33615 2.41513,0.51268 25.82455,0.1926 27.14845,-0.37115 z"
       style="fill:#25272a;fill-opacity:1" />
  </g>
</svg>
