<?xml version="1.0" encoding="UTF-8"?>
<!-- Generator: Adobe Illustrator 16.0.0, SVG Export Plug-In . SVG Version: 6.00 Build 0)  -->
<!DOCTYPE svg PUBLIC "-//W3C//DTD SVG 1.1//EN" "http://www.w3.org/Graphics/SVG/1.1/DTD/svg11.dtd">
<svg version="1.1" id="Layer_1" xmlns="http://www.w3.org/2000/svg" xmlns:xlink="http://www.w3.org/1999/xlink" x="0px" y="0px" width="40px" height="40px" viewBox="0 0 40 40" enable-background="new 0 0 40 40" xml:space="preserve">
<g>
	<path fill="#FECF0A" d="M9.034,17.885c0-1.619,0.136-2.646,3.489-5.148c2.776-2.072,11.675-9.154,11.675-9.154v11.821h6.768v17.015   H11.149c-1.163,0-2.115-0.951-2.115-2.114V17.885z"/>
	<g>
		<g>
			<polygon fill="#D1AB2B" points="24.198,15.403 24.198,22.252 11.763,30.724 27.484,25.609 27.484,15.403    "/>
			<path fill="#231F20" d="M18.517,15.05c0.726-0.866,1.788-1.173,2.372-0.683c0.583,0.488,0.465,1.588-0.26,2.454     c-0.728,0.865-1.79,1.171-2.372,0.682C17.673,17.015,17.789,15.915,18.517,15.05"/>
		</g>
	</g>
</g>
</svg>