<?xml version="1.0" encoding="UTF-8"?>
<!-- Generator: Adobe Illustrator 16.0.0, SVG Export Plug-In . SVG Version: 6.00 Build 0)  -->
<!DOCTYPE svg PUBLIC "-//W3C//DTD SVG 1.1//EN" "http://www.w3.org/Graphics/SVG/1.1/DTD/svg11.dtd">
<svg version="1.1" id="Layer_1" xmlns="http://www.w3.org/2000/svg" xmlns:xlink="http://www.w3.org/1999/xlink" x="0px" y="0px" width="60px" height="40px" viewBox="0 0 60 40" enable-background="new 0 0 60 40" xml:space="preserve">
<g>
	<g>
		<polygon fill="#0E67B2" points="27.135,26.759 23.617,26.759 25.816,13.249 29.334,13.249   "/>
		<path fill="#0E67B2" d="M20.657,13.249l-3.353,9.293l-0.397-2.002l0,0l-1.185-6.077c0,0-0.143-1.215-1.669-1.215H8.511    l-0.065,0.227c0,0,1.698,0.355,3.679,1.546l3.058,11.738h3.664l5.597-13.51H20.657L20.657,13.249z"/>
		<path fill="#0E67B2" d="M48.327,26.759h3.228l-2.814-13.51h-2.83c-1.304,0-1.623,1.005-1.623,1.005L39.04,26.759h3.668    l0.735-2.007h4.472L48.327,26.759z M44.457,21.979l1.849-5.056l1.04,5.056H44.457z"/>
		<path fill="#0E67B2" d="M39.316,16.497l0.503-2.902c0,0-1.548-0.589-3.165-0.589c-1.742,0-5.89,0.764-5.89,4.474    c0,3.491,4.866,3.534,4.866,5.368c0,1.832-4.365,1.505-5.805,0.351l-0.522,3.029c0,0,1.569,0.767,3.967,0.767    c2.402,0,6.024-1.244,6.024-4.626c0-3.515-4.908-3.842-4.908-5.37C34.387,15.47,37.812,15.668,39.316,16.497z"/>
	</g>
	<path fill="#FAA735" d="M16.907,20.54l-1.185-6.077c0,0-0.143-1.215-1.669-1.215H8.511l-0.065,0.227c0,0,2.665,0.555,5.222,2.623   C16.11,18.076,16.907,20.54,16.907,20.54z"/>
</g>
</svg>