<?xml version="1.0" encoding="UTF-8"?>
<!-- Generator: Adobe Illustrator 16.0.0, SVG Export Plug-In . SVG Version: 6.00 Build 0)  -->
<!DOCTYPE svg PUBLIC "-//W3C//DTD SVG 1.1//EN" "http://www.w3.org/Graphics/SVG/1.1/DTD/svg11.dtd">
<svg version="1.1" id="Layer_1" xmlns="http://www.w3.org/2000/svg" xmlns:xlink="http://www.w3.org/1999/xlink" x="0px" y="0px" width="40px" height="40px" viewBox="0 0 40 40" enable-background="new 0 0 40 40" xml:space="preserve">
<g>
	<g>
		<g>
			<g>
				<circle fill="#EC2130" cx="13.253" cy="20" r="10.053"/>
				<g>
					<path fill="#FCB131" d="M26.747,9.947c-2.597,0-4.963,0.985-6.747,2.602c-0.363,0.33-0.702,0.686-1.016,1.065h2.031       c0.277,0.338,0.533,0.692,0.766,1.064h-3.562c-0.215,0.342-0.408,0.696-0.581,1.064h4.722c0.162,0.345,0.305,0.701,0.426,1.064       h-5.573c-0.116,0.348-0.214,0.703-0.292,1.065h6.156c0.147,0.687,0.228,1.398,0.228,2.13c0,1.116-0.183,2.19-0.519,3.192       h-5.573c0.121,0.366,0.264,0.721,0.424,1.067h4.723c-0.174,0.365-0.366,0.72-0.581,1.063h-3.561       c0.23,0.37,0.487,0.725,0.764,1.062h2.03c-0.311,0.38-0.649,0.736-1.014,1.067c1.785,1.615,4.151,2.6,6.748,2.6       c5.551,0,10.054-4.5,10.054-10.052C36.802,14.448,32.299,9.947,26.747,9.947z"/>
				</g>
			</g>
			<path fill="#FCB131" d="M35.461,25.604c0-0.181,0.145-0.325,0.324-0.325c0.182,0,0.325,0.145,0.325,0.325     c0,0.179-0.146,0.323-0.325,0.323S35.461,25.782,35.461,25.604z M35.785,25.849c0.137,0,0.247-0.109,0.247-0.245     c0-0.138-0.11-0.249-0.247-0.249s-0.246,0.111-0.246,0.249C35.539,25.739,35.648,25.849,35.785,25.849z M35.741,25.746h-0.067     v-0.287h0.121c0.025,0,0.051,0,0.073,0.015c0.021,0.016,0.036,0.045,0.036,0.071c0,0.033-0.02,0.062-0.051,0.073l0.053,0.128     h-0.073l-0.044-0.113h-0.05v0.113H35.741z M35.741,25.583h0.036c0.015,0,0.028,0.002,0.041-0.005     c0.012-0.008,0.018-0.02,0.018-0.033c0-0.011-0.008-0.023-0.018-0.028c-0.013-0.008-0.029-0.006-0.043-0.006h-0.034V25.583z"/>
		</g>
		<g>
			<g>
				<path fill="#203A70" d="M10.904,21.101c-0.114-0.015-0.164-0.018-0.243-0.018c-0.618,0-0.931,0.213-0.931,0.631      c0,0.258,0.152,0.422,0.39,0.422C10.565,22.136,10.886,21.712,10.904,21.101z M11.699,22.948c-0.146,0-0.905,0-0.905,0      l0.022-0.431c-0.278,0.338-0.644,0.502-1.144,0.502c-0.592,0-0.997-0.462-0.997-1.134c0-1.01,0.705-1.6,1.915-1.6      c0.125,0,0.283,0.013,0.446,0.033c0.033-0.137,0.042-0.194,0.042-0.269c0-0.274-0.191-0.377-0.699-0.377      c-0.534-0.007-0.974,0.127-1.156,0.186c0.012-0.066,0.152-0.932,0.152-0.932c0.544-0.16,0.902-0.219,1.306-0.219      c0.937,0,1.435,0.419,1.432,1.215c0.003,0.213-0.032,0.476-0.087,0.821C11.93,21.348,11.726,22.635,11.699,22.948z"/>
				<polygon fill="#203A70" points="8.218,22.948 7.126,22.948 7.752,19.028 6.356,22.948 5.612,22.948 5.521,19.05 4.863,22.948       3.842,22.948 4.696,17.85 6.264,17.85 6.358,20.702 7.316,17.85 9.062,17.85     "/>
				<path fill="#203A70" d="M28.098,21.101c-0.116-0.015-0.166-0.018-0.243-0.018c-0.619,0-0.934,0.213-0.934,0.631      c0,0.258,0.154,0.422,0.393,0.422C27.758,22.136,28.077,21.712,28.098,21.101z M28.89,22.948c-0.145,0-0.901,0-0.901,0      l0.018-0.431c-0.275,0.338-0.643,0.502-1.142,0.502c-0.592,0-0.998-0.462-0.998-1.134c0-1.01,0.705-1.6,1.916-1.6      c0.123,0,0.282,0.013,0.444,0.033c0.035-0.137,0.043-0.194,0.043-0.269c0-0.274-0.188-0.377-0.698-0.377      c-0.534-0.007-0.976,0.127-1.156,0.186c0.014-0.066,0.152-0.932,0.152-0.932c0.544-0.16,0.902-0.219,1.307-0.219      c0.937,0,1.434,0.419,1.432,1.215c0.002,0.213-0.033,0.476-0.087,0.821C29.122,21.348,28.918,22.635,28.89,22.948z"/>
				<path fill="#203A70" d="M16.549,22.885c-0.299,0.092-0.532,0.135-0.785,0.135c-0.557,0-0.863-0.321-0.863-0.913      c-0.008-0.183,0.081-0.664,0.15-1.103c0.063-0.389,0.473-2.831,0.473-2.831h1.085l-0.127,0.627h0.656l-0.148,0.998h-0.658      c-0.126,0.787-0.305,1.77-0.309,1.9c0,0.213,0.115,0.309,0.375,0.309c0.123,0,0.22-0.013,0.292-0.04L16.549,22.885z"/>
				<path fill="#203A70" d="M19.875,22.852c-0.372,0.113-0.731,0.168-1.111,0.168c-1.215-0.003-1.85-0.636-1.85-1.851      c0-1.417,0.806-2.46,1.9-2.46c0.894,0,1.465,0.584,1.465,1.5c0,0.304-0.038,0.602-0.134,1.021h-2.159      c-0.074,0.601,0.312,0.853,0.942,0.853c0.389,0,0.739-0.082,1.127-0.259L19.875,22.852z M19.265,20.393      c0.007-0.087,0.115-0.742-0.505-0.742c-0.345,0-0.593,0.266-0.693,0.742H19.265z"/>
				<path fill="#203A70" d="M12.354,20.112c0,0.525,0.253,0.885,0.83,1.158c0.443,0.207,0.511,0.271,0.511,0.457      c0,0.26-0.194,0.378-0.627,0.378c-0.326,0-0.627-0.051-0.978-0.164c0,0-0.144,0.912-0.149,0.957      C12.19,22.95,12.41,23,13.076,23.02c1.151,0,1.683-0.438,1.683-1.387c0-0.567-0.221-0.902-0.769-1.155      c-0.458-0.211-0.51-0.257-0.51-0.449c0-0.225,0.182-0.339,0.534-0.339c0.215,0,0.508,0.021,0.785,0.061l0.155-0.961      c-0.282-0.046-0.711-0.081-0.961-0.081C12.772,18.708,12.35,19.346,12.354,20.112z"/>
				<path fill="#203A70" d="M25.183,18.817c0.303,0,0.585,0.08,0.975,0.275l0.179-1.106c-0.159-0.062-0.723-0.433-1.2-0.433      c-0.729,0-1.348,0.364-1.781,0.961c-0.632-0.21-0.895,0.214-1.214,0.636l-0.283,0.066c0.021-0.138,0.042-0.275,0.035-0.417      h-1.002c-0.136,1.285-0.38,2.585-0.57,3.867l-0.05,0.28h1.092c0.184-1.185,0.282-1.943,0.345-2.455l0.411-0.23      c0.061-0.228,0.253-0.306,0.64-0.295c-0.053,0.27-0.08,0.555-0.08,0.849c0,1.358,0.733,2.202,1.906,2.202      c0.303,0,0.563-0.039,0.966-0.149l0.192-1.162c-0.361,0.178-0.658,0.261-0.927,0.261c-0.635,0-1.019-0.469-1.019-1.242      C23.797,19.604,24.368,18.817,25.183,18.817z"/>
				<path fill="#203A70" d="M34.422,17.85l-0.242,1.472c-0.298-0.393-0.62-0.676-1.042-0.676c-0.553,0-1.052,0.417-1.379,1.031      c-0.458-0.094-0.931-0.254-0.931-0.254v0.004c0.038-0.343,0.051-0.553,0.048-0.624h-1.002c-0.137,1.283-0.38,2.583-0.569,3.868      l-0.051,0.28h1.094c0.146-0.96,0.259-1.754,0.342-2.384c0.374-0.338,0.561-0.63,0.937-0.613      c-0.166,0.405-0.264,0.871-0.264,1.345c0,1.037,0.525,1.722,1.317,1.722c0.4,0,0.706-0.138,1.006-0.456l-0.051,0.385h1.032      l0.83-5.099H34.422L34.422,17.85z M33.056,21.989c-0.369,0-0.558-0.275-0.558-0.817c0-0.813,0.352-1.394,0.847-1.394      c0.374,0,0.576,0.287,0.576,0.813C33.921,21.414,33.565,21.989,33.056,21.989z"/>
			</g>
			<g>
				<polygon fill="#FFFFFF" points="8.531,22.644 7.441,22.644 8.066,18.725 6.671,22.644 5.927,22.644 5.835,18.748 5.177,22.644       4.155,22.644 5.009,17.546 6.579,17.546 6.623,20.702 7.682,17.546 9.377,17.546     "/>
				<path fill="#FFFFFF" d="M11.219,20.797c-0.115-0.013-0.165-0.017-0.244-0.017c-0.619,0-0.933,0.214-0.933,0.63      c0,0.259,0.153,0.425,0.392,0.425C10.88,21.835,11.2,21.41,11.219,20.797z M12.013,22.644c-0.146,0-0.904,0-0.904,0l0.021-0.428      c-0.276,0.338-0.645,0.502-1.144,0.502c-0.592,0-0.998-0.462-0.998-1.134c0-1.011,0.706-1.599,1.917-1.599      c0.124,0,0.283,0.011,0.446,0.031c0.033-0.137,0.043-0.195,0.043-0.269c0-0.274-0.191-0.377-0.7-0.377      c-0.534-0.005-0.975,0.128-1.154,0.187c0.011-0.069,0.151-0.933,0.151-0.933c0.542-0.16,0.902-0.22,1.306-0.22      c0.937,0,1.433,0.422,1.433,1.217c0.001,0.213-0.033,0.476-0.089,0.822C12.244,21.043,12.041,22.332,12.013,22.644z"/>
				<path fill="#FFFFFF" d="M26.649,17.684l-0.178,1.107c-0.391-0.196-0.673-0.276-0.976-0.276c-0.814,0-1.385,0.788-1.385,1.91      c0,0.773,0.383,1.242,1.018,1.242c0.269,0,0.564-0.083,0.927-0.262l-0.192,1.163c-0.4,0.108-0.659,0.149-0.965,0.149      c-1.175,0-1.905-0.845-1.905-2.202c0-1.823,1.011-3.097,2.458-3.097C25.927,17.418,26.49,17.621,26.649,17.684z"/>
				<path fill="#FFFFFF" d="M28.411,20.797c-0.115-0.013-0.166-0.017-0.244-0.017c-0.618,0-0.932,0.214-0.932,0.63      c0,0.259,0.153,0.425,0.39,0.425C28.071,21.835,28.393,21.41,28.411,20.797z M29.204,22.644c-0.146,0-0.902,0-0.902,0      l0.02-0.428c-0.275,0.338-0.644,0.502-1.143,0.502c-0.593,0-0.997-0.462-0.997-1.134c0-1.011,0.704-1.599,1.916-1.599      c0.122,0,0.281,0.011,0.442,0.031c0.035-0.137,0.043-0.195,0.043-0.269c0-0.274-0.188-0.377-0.696-0.377      c-0.535-0.005-0.976,0.128-1.156,0.187c0.011-0.069,0.15-0.933,0.15-0.933c0.544-0.16,0.901-0.22,1.308-0.22      c0.935,0,1.433,0.422,1.431,1.217c0.002,0.213-0.033,0.476-0.087,0.822C29.435,21.043,29.232,22.332,29.204,22.644z"/>
				<path fill="#FFFFFF" d="M16.862,22.582c-0.297,0.093-0.531,0.136-0.784,0.136c-0.558,0-0.862-0.321-0.862-0.913      c-0.008-0.183,0.08-0.664,0.15-1.103c0.062-0.39,0.473-2.832,0.473-2.832h1.084l-0.126,0.628h0.556l-0.148,0.996h-0.559      c-0.125,0.79-0.306,1.771-0.308,1.902c0,0.213,0.115,0.307,0.374,0.307c0.124,0,0.221-0.013,0.294-0.038L16.862,22.582z"/>
				<path fill="#FFFFFF" d="M20.189,22.549c-0.373,0.113-0.733,0.169-1.113,0.169c-1.215-0.003-1.848-0.636-1.848-1.851      c0-1.417,0.806-2.461,1.898-2.461c0.896,0,1.465,0.585,1.465,1.503c0,0.302-0.039,0.6-0.132,1.019h-2.161      c-0.071,0.601,0.314,0.853,0.943,0.853c0.39,0,0.738-0.082,1.128-0.262L20.189,22.549z M19.581,20.09      c0.005-0.086,0.114-0.741-0.506-0.741c-0.345,0-0.592,0.264-0.694,0.741H19.581z"/>
				<path fill="#FFFFFF" d="M12.667,19.808c0,0.526,0.254,0.887,0.832,1.159c0.441,0.208,0.51,0.271,0.51,0.458      c0,0.258-0.195,0.374-0.628,0.374c-0.324,0-0.628-0.049-0.978-0.163c0,0-0.143,0.913-0.149,0.958      c0.248,0.055,0.468,0.104,1.136,0.124c1.152,0,1.683-0.44,1.683-1.387c0-0.571-0.221-0.905-0.769-1.157      c-0.458-0.209-0.511-0.256-0.511-0.45c0-0.225,0.183-0.34,0.536-0.34c0.213,0,0.506,0.024,0.782,0.063l0.156-0.963      c-0.282-0.044-0.711-0.082-0.96-0.082C13.085,18.404,12.665,19.042,12.667,19.808z"/>
				<path fill="#FFFFFF" d="M34.98,22.644h-1.031l0.052-0.385c-0.301,0.318-0.607,0.457-1.008,0.457      c-0.792,0-1.315-0.684-1.315-1.72c0-1.379,0.813-2.542,1.774-2.542c0.423,0,0.744,0.172,1.044,0.566l0.24-1.475h1.076      L34.98,22.644z M33.369,21.688c0.509,0,0.867-0.575,0.867-1.398c0-0.525-0.204-0.812-0.579-0.812      c-0.495,0-0.847,0.577-0.847,1.394C32.811,21.412,32.999,21.688,33.369,21.688z"/>
				<path fill="#FFFFFF" d="M30.188,18.498c-0.135,1.284-0.38,2.584-0.568,3.868l-0.05,0.277h1.092      c0.39-2.535,0.483-3.03,1.098-2.968c0.097-0.519,0.278-0.973,0.414-1.202c-0.457-0.096-0.713,0.16-1.048,0.652      c0.028-0.211,0.075-0.417,0.066-0.627H30.188z"/>
				<path fill="#FFFFFF" d="M21.205,18.498c-0.138,1.284-0.38,2.584-0.568,3.868l-0.051,0.277h1.093      c0.39-2.535,0.484-3.03,1.095-2.968c0.099-0.519,0.279-0.973,0.415-1.202c-0.456-0.096-0.711,0.16-1.046,0.652      c0.026-0.211,0.074-0.417,0.066-0.627H21.205z"/>
				<g>
					<path fill="#FFFFFF" d="M35.459,22.32c0-0.18,0.146-0.325,0.326-0.325c0.178,0,0.323,0.146,0.323,0.325       c0,0.179-0.146,0.323-0.323,0.323C35.605,22.644,35.459,22.499,35.459,22.32z M35.785,22.568c0.137,0,0.247-0.112,0.247-0.248       c0-0.137-0.11-0.247-0.247-0.247s-0.246,0.11-0.246,0.247C35.539,22.456,35.648,22.568,35.785,22.568z M35.741,22.463h-0.067       v-0.285h0.121c0.023,0,0.049,0,0.071,0.014c0.023,0.016,0.038,0.043,0.038,0.071c0,0.034-0.02,0.064-0.051,0.075l0.051,0.125       h-0.071l-0.044-0.114h-0.05v0.114H35.741z M35.741,22.3h0.036c0.015,0,0.028,0.003,0.041-0.005       c0.01-0.008,0.017-0.021,0.017-0.033c0-0.011-0.007-0.022-0.017-0.031c-0.013-0.005-0.029-0.003-0.043-0.003h-0.034V22.3       L35.741,22.3z"/>
				</g>
			</g>
		</g>
	</g>
</g>
</svg>